<svg data-v-423bf9ae="" xmlns="http://www.w3.org/2000/svg" viewBox="0 0 387 90" class="iconLeft"><!----><!----><!----><g data-v-423bf9ae="" id="89824b2d-bcba-44b7-b50b-77a5b619692f" fill="white" transform="matrix(5.911330223083496,0,0,5.911330223083496,90.2413558959961,-1.5517255067825317)"><path d="M0.14 4.20L2.66 4.20L2.66 12.60L4.20 12.60L4.20 4.20L6.72 4.20L6.72 2.80L0.14 2.80ZM6.16 9.38C6.16 10.40 6.50 11.21 7.18 11.82C7.85 12.43 8.69 12.74 9.70 12.74C10.71 12.74 11.55 12.43 12.23 11.82C12.91 11.21 13.24 10.40 13.24 9.38C13.24 8.36 12.91 7.55 12.23 6.94C11.55 6.33 10.71 6.02 9.70 6.02C8.69 6.02 7.85 6.33 7.18 6.94C6.50 7.55 6.16 8.36 6.16 9.38ZM7.64 9.38C7.64 8.75 7.84 8.26 8.22 7.90C8.60 7.53 9.10 7.35 9.70 7.35C10.31 7.35 10.80 7.53 11.19 7.90C11.57 8.26 11.76 8.75 11.76 9.38C11.76 10.01 11.57 10.50 11.19 10.86C10.80 11.23 10.31 11.41 9.70 11.41C9.10 11.41 8.60 11.23 8.22 10.86C7.84 10.50 7.64 10.01 7.64 9.38ZM14.64 2.80L14.64 12.60L17.93 12.60C19.43 12.60 20.63 12.15 21.54 11.25C22.45 10.35 22.90 9.17 22.90 7.70C22.90 6.23 22.45 5.05 21.54 4.15C20.63 3.25 19.43 2.80 17.93 2.80ZM16.18 4.20L17.93 4.20C18.99 4.20 19.82 4.50 20.44 5.11C21.06 5.72 21.36 6.58 21.36 7.70C21.36 8.82 21.06 9.68 20.44 10.29C19.82 10.90 18.99 11.20 17.93 11.20L16.18 11.20ZM23.74 9.38C23.74 10.40 24.08 11.21 24.76 11.82C25.44 12.43 26.28 12.74 27.29 12.74C28.29 12.74 29.14 12.43 29.81 11.82C30.49 11.21 30.83 10.40 30.83 9.38C30.83 8.36 30.49 7.55 29.81 6.94C29.14 6.33 28.29 6.02 27.29 6.02C26.28 6.02 25.44 6.33 24.76 6.94C24.08 7.55 23.74 8.36 23.74 9.38ZM25.23 9.38C25.23 8.75 25.42 8.26 25.80 7.90C26.18 7.53 26.68 7.35 27.29 7.35C27.89 7.35 28.39 7.53 28.77 7.90C29.15 8.26 29.34 8.75 29.34 9.38C29.34 10.01 29.15 10.50 28.77 10.86C28.39 11.23 27.89 11.41 27.29 11.41C26.68 11.41 26.18 11.23 25.80 10.86C25.42 10.50 25.23 10.01 25.23 9.38ZM31.67 9.38C31.67 10.40 32.01 11.21 32.68 11.82C33.36 12.43 34.20 12.74 35.21 12.74C36.22 12.74 37.06 12.43 37.74 11.82C38.41 11.21 38.75 10.40 38.75 9.38C38.75 8.36 38.41 7.55 37.74 6.94C37.06 6.33 36.22 6.02 35.21 6.02C34.20 6.02 33.36 6.33 32.68 6.94C32.01 7.55 31.67 8.36 31.67 9.38ZM33.15 9.38C33.15 8.75 33.34 8.26 33.73 7.90C34.11 7.53 34.60 7.35 35.21 7.35C35.82 7.35 36.31 7.53 36.69 7.90C37.08 8.26 37.27 8.75 37.27 9.38C37.27 10.01 37.08 10.50 36.69 10.86C36.31 11.23 35.82 11.41 35.21 11.41C34.60 11.41 34.11 11.23 33.73 10.86C33.34 10.50 33.15 10.01 33.15 9.38ZM39.59 9.38C39.59 10.40 39.93 11.21 40.61 11.82C41.28 12.43 42.13 12.74 43.13 12.74C44.14 12.74 44.98 12.43 45.66 11.82C46.34 11.21 46.68 10.40 46.68 9.38C46.68 8.36 46.34 7.55 45.66 6.94C44.98 6.33 44.14 6.02 43.13 6.02C42.13 6.02 41.28 6.33 40.61 6.94C39.93 7.55 39.59 8.36 39.59 9.38ZM41.08 9.38C41.08 8.75 41.27 8.26 41.65 7.90C42.03 7.53 42.53 7.35 43.13 7.35C43.74 7.35 44.24 7.53 44.62 7.90C45.00 8.26 45.19 8.75 45.19 9.38C45.19 10.01 45.00 10.50 44.62 10.86C44.24 11.23 43.74 11.41 43.13 11.41C42.53 11.41 42.03 11.23 41.65 10.86C41.27 10.50 41.08 10.01 41.08 9.38ZM48.24 12.04C48.24 12.29 48.34 12.51 48.52 12.68C48.71 12.86 48.93 12.95 49.20 12.95C49.46 12.95 49.68 12.86 49.87 12.68C50.05 12.51 50.15 12.29 50.15 12.04C50.15 11.79 50.05 11.57 49.87 11.40C49.68 11.22 49.46 11.13 49.20 11.13C48.93 11.13 48.71 11.22 48.52 11.40C48.34 11.57 48.24 11.79 48.24 12.04ZM48.29 2.80L48.64 9.80L49.76 9.80L50.11 2.80Z"></path></g><!----><g data-v-423bf9ae="" id="f970c2b0-413a-4990-beeb-efe14220bbd8" transform="matrix(1.875,0,0,1.875,-8.909466743469238,0)" stroke="none" fill="white"><path d="M38.4 3.2H33V1c0-.5-.4-1-1-1H16c-.5 0-1 .4-1 1v2.2H9.6C7.1 3.2 5 5.2 5 7.8v35.7C5 45.9 7.1 48 9.6 48h28.7c2.5 0 4.6-2.1 4.6-4.6V7.8c.1-2.6-2-4.6-4.5-4.6zM31 2v4.7H17V2h14zm10 41.4c0 1.4-1.2 2.6-2.6 2.6H9.6C8.2 46 7 44.9 7 43.4V7.8c0-1.4 1.2-2.6 2.6-2.6H15v2.5c0 .5.4 1 1 1h16c.5 0 1-.4 1-1V5.2h5.3c1.4 0 2.6 1.2 2.6 2.6v35.6z"></path><path d="M36.6 23.4h-6.3c-.5 0-1 .4-1 1v6.3c0 .5.4 1 1 1h6.3c.5 0 1-.4 1-1v-6.3c0-.6-.4-1-1-1zm-.9 6.2h-4.3v-4.3h4.3v4.3zM36.6 34.3h-6.3c-.5 0-1 .4-1 1v6.3c0 .5.4 1 1 1h6.3c.5 0 1-.4 1-1v-6.3c0-.6-.4-1-1-1zm-.9 6.3h-4.3v-4.3h4.3v4.3zM25.9 24.7H11.3c-.5 0-1 .4-1 1 0 .5.4 1 1 1h14.6c.5 0 1-.4 1-1 0-.5-.5-1-1-1zM25.9 28.3H16c-.5 0-1 .4-1 1 0 .5.4 1 1 1h9.9c.5 0 1-.4 1-1 0-.5-.5-1-1-1zM25.9 34.3H11.3c-.5 0-1 .4-1 1 0 .5.4 1 1 1h14.6c.5 0 1-.4 1-1s-.5-1-1-1zM25.9 37.9H16c-.5 0-1 .4-1 1 0 .5.4 1 1 1h9.9c.5 0 1-.4 1-1s-.5-1-1-1zM25.9 13.8H11.3c-.5 0-1 .4-1 1 0 .5.4 1 1 1h14.6c.5 0 1-.4 1-1s-.5-1-1-1zM25.9 17.4H16c-.5 0-1 .4-1 1 0 .5.4 1 1 1h9.9c.5 0 1-.4 1-1s-.5-1-1-1zM36.6 12.5h-6.3c-.5 0-1 .4-1 1v6.3c0 .5.4 1 1 1h6.3c.5 0 1-.4 1-1v-6.3c0-.6-.4-1-1-1zm-.9 6.2h-4.3v-4.3h4.3v4.3z"></path></g><!----></svg>